<?xml version="1.0" encoding="UTF-8"?><svg id="a" xmlns="http://www.w3.org/2000/svg" xmlns:xlink="http://www.w3.org/1999/xlink" viewBox="0 0 256 256"><defs><style>.c{fill:url(#b);}</style><linearGradient id="b" x1="28.22" y1="9.14" x2="227.78" y2="208.71" gradientTransform="matrix(1, 0, 0, 1, 0, 0)" gradientUnits="userSpaceOnUse"><stop offset="0" stop-color="#e74c3c"/><stop offset="1" stop-color="#8e44ad"/></linearGradient></defs><path class="c" d="M249.33,32.35L184.51,14.07c-2.49-.72-5.17-.32-7.38,1.08-2.19,1.39-3.68,3.64-4.12,6.21-3.95,23.49-21.2,38.08-45.01,38.08-20.41,0-40.7-29.51-46.79-40.89-2.04-3.79-6.44-5.67-10.58-4.48L6.63,32.35c-3.92,1.12-6.63,4.72-6.63,8.8V114.29c0,2.74,1.23,5.33,3.35,7.07,2.11,1.74,4.9,2.43,7.59,1.89l34.78-6.95v98.56c0,15.12,12.31,27.43,27.43,27.43h109.71c15.12,0,27.43-12.31,27.43-27.43V125.44l34.78,6.96c2.7,.55,5.49-.16,7.59-1.89,2.11-1.75,3.35-4.33,3.35-7.08V41.15c0-4.1-2.72-7.69-6.67-8.8Z"/></svg>